%TF.GenerationSoftware,KiCad,Pcbnew,7.0.9*%
%TF.CreationDate,2024-05-27T22:26:10+09:00*%
%TF.ProjectId,segments-2-the-absurd,7365676d-656e-4747-932d-322d7468652d,rev?*%
%TF.SameCoordinates,Original*%
%TF.FileFunction,Legend,Top*%
%TF.FilePolarity,Positive*%
%FSLAX46Y46*%
G04 Gerber Fmt 4.6, Leading zero omitted, Abs format (unit mm)*
G04 Created by KiCad (PCBNEW 7.0.9) date 2024-05-27 22:26:10*
%MOMM*%
%LPD*%
G01*
G04 APERTURE LIST*
%ADD10C,0.150000*%
%ADD11C,0.120000*%
%ADD12R,1.100000X1.100000*%
%ADD13C,1.100000*%
%ADD14C,3.000000*%
%ADD15R,3.000000X3.000000*%
%ADD16R,1.000000X1.000000*%
%ADD17O,1.000000X1.000000*%
%ADD18R,1.700000X1.700000*%
%ADD19O,1.700000X1.700000*%
G04 APERTURE END LIST*
D10*
X211391066Y-158099419D02*
X211391066Y-158813704D01*
X211391066Y-158813704D02*
X211343447Y-158956561D01*
X211343447Y-158956561D02*
X211248209Y-159051800D01*
X211248209Y-159051800D02*
X211105352Y-159099419D01*
X211105352Y-159099419D02*
X211010114Y-159099419D01*
X212391066Y-159099419D02*
X211819638Y-159099419D01*
X212105352Y-159099419D02*
X212105352Y-158099419D01*
X212105352Y-158099419D02*
X212010114Y-158242276D01*
X212010114Y-158242276D02*
X211914876Y-158337514D01*
X211914876Y-158337514D02*
X211819638Y-158385133D01*
D11*
%TO.C,D12*%
X331466000Y-159104000D02*
X330958000Y-159612000D01*
X331466000Y-159104000D02*
X331974000Y-159612000D01*
X331974000Y-159612000D02*
X331466000Y-159104000D01*
%TO.C,D2*%
X255267000Y-119988000D02*
X254759000Y-120496000D01*
X255267000Y-119988000D02*
X255775000Y-120496000D01*
X255775000Y-120496000D02*
X255267000Y-119988000D01*
%TO.C,D6*%
X255266000Y-139546000D02*
X254758000Y-140054000D01*
X255266000Y-139546000D02*
X255774000Y-140054000D01*
X255774000Y-140054000D02*
X255266000Y-139546000D01*
%TO.C,D8*%
X331466000Y-139546000D02*
X330958000Y-140054000D01*
X331466000Y-139546000D02*
X331974000Y-140054000D01*
X331974000Y-140054000D02*
X331466000Y-139546000D01*
%TO.C,D7*%
X293366000Y-139546000D02*
X292858000Y-140054000D01*
X293366000Y-139546000D02*
X293874000Y-140054000D01*
X293874000Y-140054000D02*
X293366000Y-139546000D01*
%TO.C,D1*%
X217167000Y-119988000D02*
X216659000Y-120496000D01*
X217167000Y-119988000D02*
X217675000Y-120496000D01*
X217675000Y-120496000D02*
X217167000Y-119988000D01*
%TO.C,D15*%
X293366000Y-178662000D02*
X292858000Y-179170000D01*
X293366000Y-178662000D02*
X293874000Y-179170000D01*
X293874000Y-179170000D02*
X293366000Y-178662000D01*
%TO.C,D5*%
X217166000Y-139546000D02*
X216658000Y-140054000D01*
X217166000Y-139546000D02*
X217674000Y-140054000D01*
X217674000Y-140054000D02*
X217166000Y-139546000D01*
%TO.C,D3*%
X293368000Y-119990000D02*
X292860000Y-120498000D01*
X293368000Y-119990000D02*
X293876000Y-120498000D01*
X293876000Y-120498000D02*
X293368000Y-119990000D01*
%TO.C,D9*%
X217166000Y-159104000D02*
X216658000Y-159612000D01*
X217166000Y-159104000D02*
X217674000Y-159612000D01*
X217674000Y-159612000D02*
X217166000Y-159104000D01*
%TO.C,D16*%
X331466000Y-178662000D02*
X330958000Y-179170000D01*
X331466000Y-178662000D02*
X331974000Y-179170000D01*
X331974000Y-179170000D02*
X331466000Y-178662000D01*
%TO.C,D11*%
X293367000Y-159102000D02*
X292859000Y-159610000D01*
X293367000Y-159102000D02*
X293875000Y-159610000D01*
X293875000Y-159610000D02*
X293367000Y-159102000D01*
%TO.C,D10*%
X255266000Y-159104000D02*
X254758000Y-159612000D01*
X255266000Y-159104000D02*
X255774000Y-159612000D01*
X255774000Y-159612000D02*
X255266000Y-159104000D01*
%TO.C,D13*%
X217166000Y-178662000D02*
X216658000Y-179170000D01*
X217166000Y-178662000D02*
X217674000Y-179170000D01*
X217674000Y-179170000D02*
X217166000Y-178662000D01*
%TO.C,D4*%
X331468000Y-119990000D02*
X330960000Y-120498000D01*
X331468000Y-119990000D02*
X331976000Y-120498000D01*
X331976000Y-120498000D02*
X331468000Y-119990000D01*
%TO.C,D14*%
X255266000Y-178662000D02*
X254758000Y-179170000D01*
X255266000Y-178662000D02*
X255774000Y-179170000D01*
X255774000Y-179170000D02*
X255266000Y-178662000D01*
%TD*%
%LPC*%
D12*
%TO.C,D12*%
X331470000Y-158494000D03*
D13*
X334010000Y-158494000D03*
X336550000Y-158494000D03*
X339090000Y-158494000D03*
X341630000Y-158494000D03*
X344170000Y-158494000D03*
X344170000Y-143254000D03*
X341630000Y-143254000D03*
X339090000Y-143254000D03*
X336550000Y-143254000D03*
X334010000Y-143254000D03*
X331470000Y-143254000D03*
%TD*%
D12*
%TO.C,D2*%
X255271000Y-119378000D03*
D13*
X257811000Y-119378000D03*
X260351000Y-119378000D03*
X262891000Y-119378000D03*
X265431000Y-119378000D03*
X267971000Y-119378000D03*
X267971000Y-104138000D03*
X265431000Y-104138000D03*
X262891000Y-104138000D03*
X260351000Y-104138000D03*
X257811000Y-104138000D03*
X255271000Y-104138000D03*
%TD*%
D14*
%TO.C,REF\u002A\u002A*%
X360680000Y-102870000D03*
%TD*%
D15*
%TO.C,J1*%
X211775200Y-162030400D03*
D14*
X211775200Y-167030400D03*
X211775200Y-172030400D03*
%TD*%
D12*
%TO.C,D6*%
X255270000Y-138936000D03*
D13*
X257810000Y-138936000D03*
X260350000Y-138936000D03*
X262890000Y-138936000D03*
X265430000Y-138936000D03*
X267970000Y-138936000D03*
X267970000Y-123696000D03*
X265430000Y-123696000D03*
X262890000Y-123696000D03*
X260350000Y-123696000D03*
X257810000Y-123696000D03*
X255270000Y-123696000D03*
%TD*%
D12*
%TO.C,D8*%
X331470000Y-138936000D03*
D13*
X334010000Y-138936000D03*
X336550000Y-138936000D03*
X339090000Y-138936000D03*
X341630000Y-138936000D03*
X344170000Y-138936000D03*
X344170000Y-123696000D03*
X341630000Y-123696000D03*
X339090000Y-123696000D03*
X336550000Y-123696000D03*
X334010000Y-123696000D03*
X331470000Y-123696000D03*
%TD*%
D12*
%TO.C,D7*%
X293370000Y-138936000D03*
D13*
X295910000Y-138936000D03*
X298450000Y-138936000D03*
X300990000Y-138936000D03*
X303530000Y-138936000D03*
X306070000Y-138936000D03*
X306070000Y-123696000D03*
X303530000Y-123696000D03*
X300990000Y-123696000D03*
X298450000Y-123696000D03*
X295910000Y-123696000D03*
X293370000Y-123696000D03*
%TD*%
D12*
%TO.C,D1*%
X217171000Y-119378000D03*
D13*
X219711000Y-119378000D03*
X222251000Y-119378000D03*
X224791000Y-119378000D03*
X227331000Y-119378000D03*
X229871000Y-119378000D03*
X229871000Y-104138000D03*
X227331000Y-104138000D03*
X224791000Y-104138000D03*
X222251000Y-104138000D03*
X219711000Y-104138000D03*
X217171000Y-104138000D03*
%TD*%
D12*
%TO.C,D15*%
X293370000Y-178052000D03*
D13*
X295910000Y-178052000D03*
X298450000Y-178052000D03*
X300990000Y-178052000D03*
X303530000Y-178052000D03*
X306070000Y-178052000D03*
X306070000Y-162812000D03*
X303530000Y-162812000D03*
X300990000Y-162812000D03*
X298450000Y-162812000D03*
X295910000Y-162812000D03*
X293370000Y-162812000D03*
%TD*%
D14*
%TO.C,REF\u002A\u002A*%
X360680000Y-177292000D03*
%TD*%
D12*
%TO.C,D5*%
X217170000Y-138936000D03*
D13*
X219710000Y-138936000D03*
X222250000Y-138936000D03*
X224790000Y-138936000D03*
X227330000Y-138936000D03*
X229870000Y-138936000D03*
X229870000Y-123696000D03*
X227330000Y-123696000D03*
X224790000Y-123696000D03*
X222250000Y-123696000D03*
X219710000Y-123696000D03*
X217170000Y-123696000D03*
%TD*%
D14*
%TO.C,REF\u002A\u002A*%
X200660000Y-177292000D03*
%TD*%
D12*
%TO.C,D3*%
X293372000Y-119380000D03*
D13*
X295912000Y-119380000D03*
X298452000Y-119380000D03*
X300992000Y-119380000D03*
X303532000Y-119380000D03*
X306072000Y-119380000D03*
X306072000Y-104140000D03*
X303532000Y-104140000D03*
X300992000Y-104140000D03*
X298452000Y-104140000D03*
X295912000Y-104140000D03*
X293372000Y-104140000D03*
%TD*%
D14*
%TO.C,REF\u002A\u002A*%
X200507600Y-102946200D03*
%TD*%
D12*
%TO.C,D9*%
X217170000Y-158494000D03*
D13*
X219710000Y-158494000D03*
X222250000Y-158494000D03*
X224790000Y-158494000D03*
X227330000Y-158494000D03*
X229870000Y-158494000D03*
X229870000Y-143254000D03*
X227330000Y-143254000D03*
X224790000Y-143254000D03*
X222250000Y-143254000D03*
X219710000Y-143254000D03*
X217170000Y-143254000D03*
%TD*%
D12*
%TO.C,D16*%
X331470000Y-178052000D03*
D13*
X334010000Y-178052000D03*
X336550000Y-178052000D03*
X339090000Y-178052000D03*
X341630000Y-178052000D03*
X344170000Y-178052000D03*
X344170000Y-162812000D03*
X341630000Y-162812000D03*
X339090000Y-162812000D03*
X336550000Y-162812000D03*
X334010000Y-162812000D03*
X331470000Y-162812000D03*
%TD*%
D12*
%TO.C,D11*%
X293371000Y-158492000D03*
D13*
X295911000Y-158492000D03*
X298451000Y-158492000D03*
X300991000Y-158492000D03*
X303531000Y-158492000D03*
X306071000Y-158492000D03*
X306071000Y-143252000D03*
X303531000Y-143252000D03*
X300991000Y-143252000D03*
X298451000Y-143252000D03*
X295911000Y-143252000D03*
X293371000Y-143252000D03*
%TD*%
D12*
%TO.C,D10*%
X255270000Y-158494000D03*
D13*
X257810000Y-158494000D03*
X260350000Y-158494000D03*
X262890000Y-158494000D03*
X265430000Y-158494000D03*
X267970000Y-158494000D03*
X267970000Y-143254000D03*
X265430000Y-143254000D03*
X262890000Y-143254000D03*
X260350000Y-143254000D03*
X257810000Y-143254000D03*
X255270000Y-143254000D03*
%TD*%
D12*
%TO.C,D13*%
X217170000Y-178052000D03*
D13*
X219710000Y-178052000D03*
X222250000Y-178052000D03*
X224790000Y-178052000D03*
X227330000Y-178052000D03*
X229870000Y-178052000D03*
X229870000Y-162812000D03*
X227330000Y-162812000D03*
X224790000Y-162812000D03*
X222250000Y-162812000D03*
X219710000Y-162812000D03*
X217170000Y-162812000D03*
%TD*%
D12*
%TO.C,D4*%
X331472000Y-119380000D03*
D13*
X334012000Y-119380000D03*
X336552000Y-119380000D03*
X339092000Y-119380000D03*
X341632000Y-119380000D03*
X344172000Y-119380000D03*
X344172000Y-104140000D03*
X341632000Y-104140000D03*
X339092000Y-104140000D03*
X336552000Y-104140000D03*
X334012000Y-104140000D03*
X331472000Y-104140000D03*
%TD*%
D12*
%TO.C,D14*%
X255270000Y-178052000D03*
D13*
X257810000Y-178052000D03*
X260350000Y-178052000D03*
X262890000Y-178052000D03*
X265430000Y-178052000D03*
X267970000Y-178052000D03*
X267970000Y-162812000D03*
X265430000Y-162812000D03*
X262890000Y-162812000D03*
X260350000Y-162812000D03*
X257810000Y-162812000D03*
X255270000Y-162812000D03*
%TD*%
D16*
%TO.C,J7*%
X214630000Y-118872000D03*
D17*
X214630000Y-120142000D03*
%TD*%
D16*
%TO.C,J8*%
X208026000Y-149098000D03*
D17*
X208026000Y-150368000D03*
%TD*%
D18*
%TO.C,J13*%
X228346000Y-168016000D03*
D19*
X228346000Y-170556000D03*
%TD*%
D18*
%TO.C,J2*%
X211074000Y-104394000D03*
D19*
X211074000Y-106934000D03*
X211074000Y-109474000D03*
X211074000Y-112014000D03*
X211074000Y-114554000D03*
X211074000Y-117094000D03*
X211074000Y-119634000D03*
X211074000Y-122174000D03*
%TD*%
D18*
%TO.C,J15*%
X304800000Y-128900000D03*
D19*
X304800000Y-131440000D03*
%TD*%
D16*
%TO.C,J18*%
X214884000Y-113279000D03*
D17*
X214884000Y-114549000D03*
X214884000Y-115819000D03*
%TD*%
D18*
%TO.C,J14*%
X244348000Y-144272000D03*
D19*
X241808000Y-144272000D03*
%TD*%
D18*
%TO.C,J4*%
X218186000Y-106680000D03*
D19*
X220726000Y-106680000D03*
X223266000Y-106680000D03*
X225806000Y-106680000D03*
X228346000Y-106680000D03*
%TD*%
D18*
%TO.C,J20*%
X232867200Y-131673600D03*
D19*
X232867200Y-134213600D03*
%TD*%
D18*
%TO.C,J11*%
X238760000Y-123190000D03*
D19*
X238760000Y-125730000D03*
%TD*%
D18*
%TO.C,J16*%
X305135000Y-168981000D03*
D19*
X305135000Y-171521000D03*
%TD*%
D18*
%TO.C,J12*%
X249682000Y-105918000D03*
D19*
X247142000Y-105918000D03*
%TD*%
D18*
%TO.C,J9*%
X304800000Y-109723000D03*
D19*
X304800000Y-112263000D03*
%TD*%
D18*
%TO.C,J10*%
X306197000Y-146304000D03*
D19*
X306197000Y-148844000D03*
%TD*%
D18*
%TO.C,J6*%
X207777000Y-153924000D03*
D19*
X210317000Y-153924000D03*
X212857000Y-153924000D03*
X215397000Y-153924000D03*
X217937000Y-153924000D03*
%TD*%
D16*
%TO.C,J19*%
X208026000Y-143505000D03*
D17*
X208026000Y-144775000D03*
X208026000Y-146045000D03*
%TD*%
D18*
%TO.C,J17*%
X235991400Y-131673600D03*
D19*
X235991400Y-134213600D03*
%TD*%
%LPD*%
M02*
