%TF.GenerationSoftware,KiCad,Pcbnew,7.0.9*%
%TF.CreationDate,2024-05-27T22:26:10+09:00*%
%TF.ProjectId,segments-2-the-absurd,7365676d-656e-4747-932d-322d7468652d,rev?*%
%TF.SameCoordinates,Original*%
%TF.FileFunction,Soldermask,Top*%
%TF.FilePolarity,Negative*%
%FSLAX46Y46*%
G04 Gerber Fmt 4.6, Leading zero omitted, Abs format (unit mm)*
G04 Created by KiCad (PCBNEW 7.0.9) date 2024-05-27 22:26:10*
%MOMM*%
%LPD*%
G01*
G04 APERTURE LIST*
%ADD10R,1.100000X1.100000*%
%ADD11C,1.100000*%
%ADD12C,3.000000*%
%ADD13R,3.000000X3.000000*%
%ADD14R,1.000000X1.000000*%
%ADD15O,1.000000X1.000000*%
%ADD16R,1.700000X1.700000*%
%ADD17O,1.700000X1.700000*%
G04 APERTURE END LIST*
D10*
%TO.C,D12*%
X331470000Y-158494000D03*
D11*
X334010000Y-158494000D03*
X336550000Y-158494000D03*
X339090000Y-158494000D03*
X341630000Y-158494000D03*
X344170000Y-158494000D03*
X344170000Y-143254000D03*
X341630000Y-143254000D03*
X339090000Y-143254000D03*
X336550000Y-143254000D03*
X334010000Y-143254000D03*
X331470000Y-143254000D03*
%TD*%
D10*
%TO.C,D2*%
X255271000Y-119378000D03*
D11*
X257811000Y-119378000D03*
X260351000Y-119378000D03*
X262891000Y-119378000D03*
X265431000Y-119378000D03*
X267971000Y-119378000D03*
X267971000Y-104138000D03*
X265431000Y-104138000D03*
X262891000Y-104138000D03*
X260351000Y-104138000D03*
X257811000Y-104138000D03*
X255271000Y-104138000D03*
%TD*%
D12*
%TO.C,REF\u002A\u002A*%
X360680000Y-102870000D03*
%TD*%
D13*
%TO.C,J1*%
X211775200Y-162030400D03*
D12*
X211775200Y-167030400D03*
X211775200Y-172030400D03*
%TD*%
D10*
%TO.C,D6*%
X255270000Y-138936000D03*
D11*
X257810000Y-138936000D03*
X260350000Y-138936000D03*
X262890000Y-138936000D03*
X265430000Y-138936000D03*
X267970000Y-138936000D03*
X267970000Y-123696000D03*
X265430000Y-123696000D03*
X262890000Y-123696000D03*
X260350000Y-123696000D03*
X257810000Y-123696000D03*
X255270000Y-123696000D03*
%TD*%
D10*
%TO.C,D8*%
X331470000Y-138936000D03*
D11*
X334010000Y-138936000D03*
X336550000Y-138936000D03*
X339090000Y-138936000D03*
X341630000Y-138936000D03*
X344170000Y-138936000D03*
X344170000Y-123696000D03*
X341630000Y-123696000D03*
X339090000Y-123696000D03*
X336550000Y-123696000D03*
X334010000Y-123696000D03*
X331470000Y-123696000D03*
%TD*%
D10*
%TO.C,D7*%
X293370000Y-138936000D03*
D11*
X295910000Y-138936000D03*
X298450000Y-138936000D03*
X300990000Y-138936000D03*
X303530000Y-138936000D03*
X306070000Y-138936000D03*
X306070000Y-123696000D03*
X303530000Y-123696000D03*
X300990000Y-123696000D03*
X298450000Y-123696000D03*
X295910000Y-123696000D03*
X293370000Y-123696000D03*
%TD*%
D10*
%TO.C,D1*%
X217171000Y-119378000D03*
D11*
X219711000Y-119378000D03*
X222251000Y-119378000D03*
X224791000Y-119378000D03*
X227331000Y-119378000D03*
X229871000Y-119378000D03*
X229871000Y-104138000D03*
X227331000Y-104138000D03*
X224791000Y-104138000D03*
X222251000Y-104138000D03*
X219711000Y-104138000D03*
X217171000Y-104138000D03*
%TD*%
D10*
%TO.C,D15*%
X293370000Y-178052000D03*
D11*
X295910000Y-178052000D03*
X298450000Y-178052000D03*
X300990000Y-178052000D03*
X303530000Y-178052000D03*
X306070000Y-178052000D03*
X306070000Y-162812000D03*
X303530000Y-162812000D03*
X300990000Y-162812000D03*
X298450000Y-162812000D03*
X295910000Y-162812000D03*
X293370000Y-162812000D03*
%TD*%
D12*
%TO.C,REF\u002A\u002A*%
X360680000Y-177292000D03*
%TD*%
D10*
%TO.C,D5*%
X217170000Y-138936000D03*
D11*
X219710000Y-138936000D03*
X222250000Y-138936000D03*
X224790000Y-138936000D03*
X227330000Y-138936000D03*
X229870000Y-138936000D03*
X229870000Y-123696000D03*
X227330000Y-123696000D03*
X224790000Y-123696000D03*
X222250000Y-123696000D03*
X219710000Y-123696000D03*
X217170000Y-123696000D03*
%TD*%
D12*
%TO.C,REF\u002A\u002A*%
X200660000Y-177292000D03*
%TD*%
D10*
%TO.C,D3*%
X293372000Y-119380000D03*
D11*
X295912000Y-119380000D03*
X298452000Y-119380000D03*
X300992000Y-119380000D03*
X303532000Y-119380000D03*
X306072000Y-119380000D03*
X306072000Y-104140000D03*
X303532000Y-104140000D03*
X300992000Y-104140000D03*
X298452000Y-104140000D03*
X295912000Y-104140000D03*
X293372000Y-104140000D03*
%TD*%
D12*
%TO.C,REF\u002A\u002A*%
X200507600Y-102946200D03*
%TD*%
D10*
%TO.C,D9*%
X217170000Y-158494000D03*
D11*
X219710000Y-158494000D03*
X222250000Y-158494000D03*
X224790000Y-158494000D03*
X227330000Y-158494000D03*
X229870000Y-158494000D03*
X229870000Y-143254000D03*
X227330000Y-143254000D03*
X224790000Y-143254000D03*
X222250000Y-143254000D03*
X219710000Y-143254000D03*
X217170000Y-143254000D03*
%TD*%
D10*
%TO.C,D16*%
X331470000Y-178052000D03*
D11*
X334010000Y-178052000D03*
X336550000Y-178052000D03*
X339090000Y-178052000D03*
X341630000Y-178052000D03*
X344170000Y-178052000D03*
X344170000Y-162812000D03*
X341630000Y-162812000D03*
X339090000Y-162812000D03*
X336550000Y-162812000D03*
X334010000Y-162812000D03*
X331470000Y-162812000D03*
%TD*%
D10*
%TO.C,D11*%
X293371000Y-158492000D03*
D11*
X295911000Y-158492000D03*
X298451000Y-158492000D03*
X300991000Y-158492000D03*
X303531000Y-158492000D03*
X306071000Y-158492000D03*
X306071000Y-143252000D03*
X303531000Y-143252000D03*
X300991000Y-143252000D03*
X298451000Y-143252000D03*
X295911000Y-143252000D03*
X293371000Y-143252000D03*
%TD*%
D10*
%TO.C,D10*%
X255270000Y-158494000D03*
D11*
X257810000Y-158494000D03*
X260350000Y-158494000D03*
X262890000Y-158494000D03*
X265430000Y-158494000D03*
X267970000Y-158494000D03*
X267970000Y-143254000D03*
X265430000Y-143254000D03*
X262890000Y-143254000D03*
X260350000Y-143254000D03*
X257810000Y-143254000D03*
X255270000Y-143254000D03*
%TD*%
D10*
%TO.C,D13*%
X217170000Y-178052000D03*
D11*
X219710000Y-178052000D03*
X222250000Y-178052000D03*
X224790000Y-178052000D03*
X227330000Y-178052000D03*
X229870000Y-178052000D03*
X229870000Y-162812000D03*
X227330000Y-162812000D03*
X224790000Y-162812000D03*
X222250000Y-162812000D03*
X219710000Y-162812000D03*
X217170000Y-162812000D03*
%TD*%
D10*
%TO.C,D4*%
X331472000Y-119380000D03*
D11*
X334012000Y-119380000D03*
X336552000Y-119380000D03*
X339092000Y-119380000D03*
X341632000Y-119380000D03*
X344172000Y-119380000D03*
X344172000Y-104140000D03*
X341632000Y-104140000D03*
X339092000Y-104140000D03*
X336552000Y-104140000D03*
X334012000Y-104140000D03*
X331472000Y-104140000D03*
%TD*%
D10*
%TO.C,D14*%
X255270000Y-178052000D03*
D11*
X257810000Y-178052000D03*
X260350000Y-178052000D03*
X262890000Y-178052000D03*
X265430000Y-178052000D03*
X267970000Y-178052000D03*
X267970000Y-162812000D03*
X265430000Y-162812000D03*
X262890000Y-162812000D03*
X260350000Y-162812000D03*
X257810000Y-162812000D03*
X255270000Y-162812000D03*
%TD*%
D14*
%TO.C,J7*%
X214630000Y-118872000D03*
D15*
X214630000Y-120142000D03*
%TD*%
D14*
%TO.C,J8*%
X208026000Y-149098000D03*
D15*
X208026000Y-150368000D03*
%TD*%
D16*
%TO.C,J13*%
X228346000Y-168016000D03*
D17*
X228346000Y-170556000D03*
%TD*%
D16*
%TO.C,J2*%
X211074000Y-104394000D03*
D17*
X211074000Y-106934000D03*
X211074000Y-109474000D03*
X211074000Y-112014000D03*
X211074000Y-114554000D03*
X211074000Y-117094000D03*
X211074000Y-119634000D03*
X211074000Y-122174000D03*
%TD*%
D16*
%TO.C,J15*%
X304800000Y-128900000D03*
D17*
X304800000Y-131440000D03*
%TD*%
D14*
%TO.C,J18*%
X214884000Y-113279000D03*
D15*
X214884000Y-114549000D03*
X214884000Y-115819000D03*
%TD*%
D16*
%TO.C,J14*%
X244348000Y-144272000D03*
D17*
X241808000Y-144272000D03*
%TD*%
D16*
%TO.C,J4*%
X218186000Y-106680000D03*
D17*
X220726000Y-106680000D03*
X223266000Y-106680000D03*
X225806000Y-106680000D03*
X228346000Y-106680000D03*
%TD*%
D16*
%TO.C,J20*%
X232867200Y-131673600D03*
D17*
X232867200Y-134213600D03*
%TD*%
D16*
%TO.C,J11*%
X238760000Y-123190000D03*
D17*
X238760000Y-125730000D03*
%TD*%
D16*
%TO.C,J16*%
X305135000Y-168981000D03*
D17*
X305135000Y-171521000D03*
%TD*%
D16*
%TO.C,J12*%
X249682000Y-105918000D03*
D17*
X247142000Y-105918000D03*
%TD*%
D16*
%TO.C,J9*%
X304800000Y-109723000D03*
D17*
X304800000Y-112263000D03*
%TD*%
D16*
%TO.C,J10*%
X306197000Y-146304000D03*
D17*
X306197000Y-148844000D03*
%TD*%
D16*
%TO.C,J6*%
X207777000Y-153924000D03*
D17*
X210317000Y-153924000D03*
X212857000Y-153924000D03*
X215397000Y-153924000D03*
X217937000Y-153924000D03*
%TD*%
D14*
%TO.C,J19*%
X208026000Y-143505000D03*
D15*
X208026000Y-144775000D03*
X208026000Y-146045000D03*
%TD*%
D16*
%TO.C,J17*%
X235991400Y-131673600D03*
D17*
X235991400Y-134213600D03*
%TD*%
M02*
