M48
INCH
T1C0.0157
T2C0.0256
T3C0.0315
T4C0.0315
T5C0.0394
%
G90
G05
T1
X8.304Y-5.2033
X8.311Y-5.148
X8.3252Y-5.5852
X8.3602Y-5.6702
X8.371Y-5.503
X8.38Y-6.1595
X8.3899Y-5.7711
X8.4076Y-5.1906
X8.42Y-4.874
X8.4215Y-5.69
X8.4221Y-5.7485
X8.425Y-4.83
X8.4285Y-5.0135
X8.43Y-4.9161
X8.4375Y-5.2775
X8.4485Y-5.8215
X8.4485Y-5.8619
X8.4504Y-5.7821
X8.4744Y-5.1094
X8.498Y-4.87
X8.5085Y-5.8
X8.5098Y-5.9202
X8.5523Y-4.2873
X8.601Y-5.429
X8.63Y-5.9069
X8.6485Y-4.5012
X8.65Y-5.9485
X8.6537Y-5.0025
X8.66Y-5.15
X8.66Y-5.23
X8.68Y-4.0369
X8.685Y-6.9465
X8.693Y-5.09
X8.723Y-4.494
X8.7309Y-4.5654
X8.75Y-6.105
X8.76Y-5.92
X8.79Y-4.035
X8.83Y-6.05
X8.84Y-5.8011
X8.8476Y-5.7198
X8.849Y-4.439
X8.855Y-4.32
X8.88Y-4.375
X8.956Y-4.507
X9.0Y-5.19
X9.005Y-4.9506
X9.0192Y-4.379
X9.0327Y-4.322
X9.0685Y-4.4701
X9.09Y-5.15
X9.091Y-6.863
X9.12Y-6.52
X9.12Y-6.74
X9.121Y-4.275
X9.1302Y-6.5898
X9.2182Y-6.3265
X9.25Y-5.9575
X9.29Y-6.59
X9.2911Y-6.7665
X9.292Y-6.816
X9.3193Y-5.9107
X9.3195Y-5.8705
X9.32Y-5.9769
X9.33Y-6.355
X9.33Y-6.4
X9.3472Y-5.6278
X9.3597Y-5.8703
X9.36Y-6.145
X9.37Y-6.07
X9.414Y-5.021
X9.42Y-4.6421
X9.4215Y-6.82
X9.435Y-6.24
X9.4398Y-6.9598
X9.45Y-6.85
X9.455Y-6.91
X9.46Y-5.21
X9.4677Y-6.2027
X9.4761Y-5.0343
X9.4899Y-5.8748
X9.5169Y-6.8019
X9.5198Y-6.4385
X9.5252Y-6.2252
X9.5405Y-6.055
X9.55Y-6.41
X9.57Y-4.43
X9.5795Y-6.0494
X9.6153Y-4.4797
X9.6202Y-5.2177
X9.625Y-5.036
X9.6449Y-4.7365
X9.645Y-5.1028
X9.658Y-4.6994
X9.6751Y-6.1762
X9.678Y-5.811
X9.6908Y-4.7774
X9.706Y-6.439
X9.7066Y-4.7413
X9.7153Y-5.93
X9.716Y-5.9693
X9.7258Y-5.8921
X9.731Y-4.3397
X9.732Y-5.76
X9.735Y-6.005
X9.7389Y-4.7189
X9.755Y-4.6438
X9.7556Y-4.6832
X9.766Y-5.071
X9.775Y-4.52
X9.7765Y-4.455
X9.7765Y-5.854
X9.779Y-5.809
X9.7802Y-5.23
X9.783Y-4.856
X9.785Y-6.94
X9.797Y-6.081
X9.8002Y-5.2952
X9.834Y-5.884
X9.835Y-4.39
X9.8364Y-4.8812
X9.84Y-4.645
X9.84Y-4.6844
X9.845Y-4.76
X9.845Y-5.98
X9.8527Y-5.7827
X9.8541Y-5.8281
X9.8553Y-4.7206
X9.8726Y-4.8548
X9.88Y-6.78
X9.88Y-6.845
X9.89Y-4.82
X9.905Y-4.755
X9.9438Y-5.1915
X9.955Y-5.61
X9.96Y-4.305
X9.96Y-5.26
X9.965Y-4.3889
X9.97Y-4.53
X9.98Y-4.917
X9.98Y-5.045
X9.9848Y-5.1948
X9.985Y-5.3
X10.0039Y-4.3949
X10.0223Y-6.0692
X10.023Y-6.02
X10.0299Y-4.5346
X10.04Y-4.5726
X10.045Y-4.4013
X10.0827Y-4.3127
X10.114Y-4.377
X10.115Y-5.3
X10.115Y-5.35
X10.1205Y-4.3245
X10.155Y-4.04
X10.1817Y-4.2859
X10.1836Y-4.3828
X10.215Y-4.6474
X10.22Y-4.47
X10.224Y-4.3
X10.225Y-4.4306
X10.2269Y-4.3913
X10.295Y-5.98
X10.315Y-6.17
X10.325Y-5.765
X10.325Y-5.815
X10.35Y-6.08
X10.36Y-5.85
X10.375Y-5.9785
X10.398Y-5.676
X10.42Y-4.485
X10.425Y-4.535
X10.43Y-4.43
X10.4915Y-5.8
X10.495Y-6.145
X10.5889Y-4.135
X10.61Y-6.0435
X10.62Y-4.57
X10.675Y-4.115
X10.75Y-4.4105
X10.765Y-5.9586
X10.8148Y-5.9902
X11.61Y-4.2862
X11.6576Y-5.1074
X11.8948Y-6.8552
X11.895Y-6.745
X11.9302Y-5.9402
X11.9381Y-5.9827
X11.9535Y-5.9038
X12.075Y-6.09
X12.095Y-5.115
X12.12Y-4.865
X12.12Y-6.535
X12.124Y-4.419
X12.126Y-4.342
X12.1285Y-6.5969
X12.13Y-6.73
X12.14Y-5.886
X12.145Y-5.215
X12.15Y-5.07
X12.1517Y-5.8283
X12.2722Y-6.3415
X12.285Y-4.33
X12.3Y-6.37
X12.305Y-5.83
X12.305Y-6.595
X12.31Y-5.07
X12.31Y-5.895
X12.3124Y-4.4802
X12.3124Y-4.53
X12.315Y-4.385
X12.32Y-4.82
X12.3227Y-6.0077
X12.34Y-7.0
X12.44Y-6.945
X12.45Y-6.78
X12.4727Y-4.1949
X12.484Y-4.9063
X12.485Y-6.16
X12.49Y-6.895
X12.51Y-6.405
X12.535Y-5.255
X12.5923Y-5.7677
X12.5973Y-6.7473
X12.605Y-6.65
X12.6065Y-6.7042
X12.6189Y-5.2039
X12.62Y-4.255
X12.6202Y-6.0452
X12.6215Y-4.365
X12.6317Y-5.3217
X12.65Y-4.64
X12.65Y-5.365
X12.655Y-4.3339
X12.655Y-4.445
X12.655Y-5.79
X12.6594Y-4.4841
X12.66Y-4.4
X12.66Y-4.575
X12.66Y-5.06
X12.6602Y-5.0002
X12.6642Y-5.2892
X12.668Y-6.0165
X12.8Y-6.1735
X12.805Y-6.94
X12.8448Y-6.1552
X12.845Y-6.79
X12.86Y-5.41
X12.86Y-6.0235
X12.895Y-6.045
X12.975Y-5.25
X12.985Y-6.84
X13.005Y-5.37
X13.01Y-5.32
X13.225Y-4.763
T2
X8.19Y-5.6498
X8.19Y-5.6998
X8.19Y-5.7498
X8.19Y-5.87
X8.19Y-5.92
X8.45Y-4.68
X8.45Y-4.73
X8.46Y-4.4598
X8.46Y-4.5098
X8.46Y-4.5598
T3
X8.031Y-5.46
X8.122Y-5.779
X8.1493Y-5.439
X8.162Y-5.308
X8.192Y-5.51
X8.234Y-5.003
X8.244Y-5.257
X8.34Y-5.439
X8.393Y-5.317
X8.4533Y-5.4833
X8.5139Y-5.3814
X8.53Y-4.794
X8.589Y-5.586
X8.6205Y-4.647
X8.7252Y-4.4349
X8.78Y-5.744
X8.916Y-5.746
X8.927Y-6.034
X9.1151Y-4.4194
X9.18Y-4.215
X9.255Y-4.495
X9.88Y-4.98
X10.88Y-5.08
X10.934Y-4.31
X10.936Y-4.182
X11.036Y-4.662
X11.135Y-4.517
X11.34Y-5.08
X11.44Y-6.045
X11.445Y-5.88
X12.101Y-4.528
X12.558Y-5.014
X12.66Y-4.923
X12.807Y-5.711
X12.807Y-6.459
X12.815Y-4.194
T4
X8.55Y-4.8699
X8.55Y-5.4699
X8.55Y-5.6399
X8.55Y-6.2399
X8.55Y-6.4099
X8.55Y-7.0099
X8.55Y-4.0999
X8.55Y-4.6999
X8.65Y-4.8699
X8.65Y-5.4699
X8.65Y-5.6399
X8.65Y-6.2399
X8.65Y-6.4099
X8.65Y-7.0099
X8.65Y-4.0999
X8.65Y-4.6999
X8.75Y-4.8699
X8.75Y-5.4699
X8.75Y-5.6399
X8.75Y-6.2399
X8.75Y-6.4099
X8.75Y-7.0099
X8.75Y-4.0999
X8.75Y-4.6999
X8.85Y-4.8699
X8.85Y-5.4699
X8.85Y-5.6399
X8.85Y-6.2399
X8.85Y-6.4099
X8.85Y-7.0099
X8.85Y-4.0999
X8.85Y-4.6999
X8.95Y-4.8699
X8.95Y-5.4699
X8.95Y-5.6399
X8.95Y-6.2399
X8.95Y-6.4099
X8.95Y-7.0099
X8.95Y-4.0999
X8.95Y-4.6999
X9.05Y-4.8699
X9.05Y-5.4699
X9.05Y-5.6399
X9.05Y-6.2399
X9.05Y-6.4099
X9.05Y-7.0099
X9.05Y-4.0999
X9.05Y-4.6999
X10.05Y-4.8699
X10.05Y-5.4699
X10.05Y-5.6399
X10.05Y-6.2399
X10.05Y-6.4099
X10.05Y-7.0099
X10.05Y-4.0999
X10.05Y-4.6999
X10.15Y-4.8699
X10.15Y-5.4699
X10.15Y-5.6399
X10.15Y-6.2399
X10.15Y-6.4099
X10.15Y-7.0099
X10.15Y-4.0999
X10.15Y-4.6999
X10.25Y-4.8699
X10.25Y-5.4699
X10.25Y-5.6399
X10.25Y-6.2399
X10.25Y-6.4099
X10.25Y-7.0099
X10.25Y-4.0999
X10.25Y-4.6999
X10.35Y-4.8699
X10.35Y-5.4699
X10.35Y-5.6399
X10.35Y-6.2399
X10.35Y-6.4099
X10.35Y-7.0099
X10.35Y-4.0999
X10.35Y-4.6999
X10.45Y-4.8699
X10.45Y-5.4699
X10.45Y-5.6399
X10.45Y-6.2399
X10.45Y-6.4099
X10.45Y-7.0099
X10.45Y-4.0999
X10.45Y-4.6999
X10.55Y-4.8699
X10.55Y-5.4699
X10.55Y-5.6399
X10.55Y-6.2399
X10.55Y-6.4099
X10.55Y-7.0099
X10.55Y-4.0999
X10.55Y-4.6999
X11.55Y-4.8699
X11.55Y-5.4699
X11.55Y-6.4099
X11.55Y-7.0099
X11.55Y-5.6398
X11.55Y-6.2398
X11.5501Y-4.1
X11.5501Y-4.7
X11.65Y-4.8699
X11.65Y-5.4699
X11.65Y-6.4099
X11.65Y-7.0099
X11.65Y-5.6398
X11.65Y-6.2398
X11.6501Y-4.1
X11.6501Y-4.7
X11.75Y-4.8699
X11.75Y-5.4699
X11.75Y-6.4099
X11.75Y-7.0099
X11.75Y-5.6398
X11.75Y-6.2398
X11.7501Y-4.1
X11.7501Y-4.7
X11.85Y-4.8699
X11.85Y-5.4699
X11.85Y-6.4099
X11.85Y-7.0099
X11.85Y-5.6398
X11.85Y-6.2398
X11.8501Y-4.1
X11.8501Y-4.7
X11.95Y-4.8699
X11.95Y-5.4699
X11.95Y-6.4099
X11.95Y-7.0099
X11.95Y-5.6398
X11.95Y-6.2398
X11.9501Y-4.1
X11.9501Y-4.7
X12.05Y-4.8699
X12.05Y-5.4699
X12.05Y-6.4099
X12.05Y-7.0099
X12.05Y-5.6398
X12.05Y-6.2398
X12.0501Y-4.1
X12.0501Y-4.7
X13.05Y-4.8699
X13.05Y-5.4699
X13.05Y-5.6399
X13.05Y-6.2399
X13.05Y-6.4099
X13.05Y-7.0099
X13.0501Y-4.1
X13.0501Y-4.7
X13.15Y-4.8699
X13.15Y-5.4699
X13.15Y-5.6399
X13.15Y-6.2399
X13.15Y-6.4099
X13.15Y-7.0099
X13.1501Y-4.1
X13.1501Y-4.7
X13.25Y-4.8699
X13.25Y-5.4699
X13.25Y-5.6399
X13.25Y-6.2399
X13.25Y-6.4099
X13.25Y-7.0099
X13.2501Y-4.1
X13.2501Y-4.7
X13.35Y-4.8699
X13.35Y-5.4699
X13.35Y-5.6399
X13.35Y-6.2399
X13.35Y-6.4099
X13.35Y-7.0099
X13.3501Y-4.1
X13.3501Y-4.7
X13.45Y-4.8699
X13.45Y-5.4699
X13.45Y-5.6399
X13.45Y-6.2399
X13.45Y-6.4099
X13.45Y-7.0099
X13.4501Y-4.1
X13.4501Y-4.7
X13.55Y-4.8699
X13.55Y-5.4699
X13.55Y-5.6399
X13.55Y-6.2399
X13.55Y-6.4099
X13.55Y-7.0099
X13.5501Y-4.1
X13.5501Y-4.7
T5
X8.1802Y-6.06
X8.2802Y-6.06
X8.31Y-4.11
X8.31Y-4.21
X8.31Y-4.31
X8.31Y-4.41
X8.31Y-4.51
X8.31Y-4.61
X8.31Y-4.71
X8.31Y-4.81
X8.3802Y-6.06
X8.4802Y-6.06
X8.5802Y-6.06
X8.59Y-4.2
X8.69Y-4.2
X8.79Y-4.2
X8.89Y-4.2
X8.99Y-4.2
X8.99Y-6.6148
X8.99Y-6.7148
X9.168Y-5.184
X9.168Y-5.284
X9.291Y-5.184
X9.291Y-5.284
X9.4Y-4.85
X9.4Y-4.95
X9.52Y-5.68
X9.62Y-5.68
X9.73Y-4.17
X9.83Y-4.17
X12.0Y-4.3198
X12.0Y-4.4198
X12.0Y-5.0748
X12.0Y-5.1748
X12.0132Y-6.6528
X12.0132Y-6.7528
X12.055Y-5.76
X12.055Y-5.86
T5
G00X8.3297Y-6.3791
M15
G01X8.3455Y-6.3791
M16
G05
G00X8.3297Y-6.576
M15
G01X8.3455Y-6.576
M16
G05
G00X8.3297Y-6.7729
M15
G01X8.3455Y-6.7729
M16
G05
T0
M30
